<?xml version="1.0" encoding="UTF-8"?>
<svg width="665px" height="287px" viewBox="0 0 665 287" version="1.1" xmlns="http://www.w3.org/2000/svg" xmlns:xlink="http://www.w3.org/1999/xlink">
    <!-- Generator: Sketch 43.2 (39069) - http://www.bohemiancoding.com/sketch -->
    <title>Group 5</title>
    <desc>Created with Sketch.</desc>
    <defs></defs>
    <g id="Page-1" stroke="none" stroke-width="1" fill="none" fill-rule="evenodd">
        <g id="cc_logo_trans">
            <g id="Group-5">
                <g id="Group-4" transform="translate(0.000000, 157.000000)" fill="#FFFFFF">
                    <path d="M90.9650975,51.3244317 C81.9220579,38.4297084 66.9454609,30 50,30 C22.3857625,30 0,52.3857625 0,80 C0,107.614237 22.3857625,130 50,130 C66.9454609,130 81.9220579,121.570292 90.9650975,108.675568 L74.5790585,97.205341 C69.1532348,104.942175 60.1672765,110 50,110 C33.4314575,110 20,96.5685425 20,80 C20,63.4314575 33.4314575,50 50,50 C60.1672765,50 69.1532348,55.057825 74.5790585,62.794659 L90.9650975,51.3244317 Z" id="Combined-Shape"></path>
                    <path d="M501.965098,51.3244317 C492.922058,38.4297084 477.945461,30 461,30 C433.385763,30 411,52.3857625 411,80 C411,107.614237 433.385763,130 461,130 C477.945461,130 492.922058,121.570292 501.965098,108.675568 L485.579059,97.205341 C480.153235,104.942175 471.167277,110 461,110 C444.431458,110 431,96.5685425 431,80 C431,63.4314575 444.431458,50 461,50 C471.167277,50 480.153235,55.057825 485.579059,62.794659 L501.965098,51.3244317 Z" id="Combined-Shape"></path>
                    <path d="M146,130 C118.385763,130 96,107.614237 96,80 C96,52.3857625 118.385763,30 146,30 C173.614237,30 196,52.3857625 196,80 C196,107.614237 173.614237,130 146,130 Z M146,110 C162.568542,110 176,96.5685425 176,80 C176,63.4314575 162.568542,50 146,50 C129.431458,50 116,63.4314575 116,80 C116,96.5685425 129.431458,110 146,110 Z" id="Combined-Shape"></path>
                    <g id="Group" transform="translate(201.000000, 0.000000)">
                        <path d="M50,130 C22.3857625,130 0,107.614237 0,80 C0,52.3857625 22.3857625,30 50,30 C77.6142375,30 100,52.3857625 100,80 C100,107.614237 77.6142375,130 50,130 Z M50,110 C66.5685425,110 80,96.5685425 80,80 C80,63.4314575 66.5685425,50 50,50 C33.4314575,50 20,63.4314575 20,80 C20,96.5685425 33.4314575,110 50,110 Z" id="Combined-Shape"></path>
                        <path d="M84,0 C88,0 92,1.95943488e-15 96,0 C100,0 100,4 100,4 L100,80 L80,80 L80,4 C80,4 80,0 84,0 Z" id="Rectangle"></path>
                    </g>
                    <g id="Group-2" transform="translate(306.000000, 30.000000)">
                        <path d="M99.6189293,56.2035893 C99.8704589,54.1710173 100,52.1006366 100,50 C100,22.3857625 77.6142375,0 50,0 C22.3857625,0 0,22.3857625 0,50 C0,77.6142375 22.3857625,100 50,100 C65.2462149,100 78.8986328,93.176144 88.0696635,82.4160222 C90.5383448,79.0854806 89.1926209,77.4500183 88.2715245,76.7928758 C83.4305757,73.3391731 79.2404435,70.4663893 77.9672733,69.6321593 C76.1437599,68.4373233 74.7945497,68.0923994 71.8236844,70.5847414 C66.3537296,76.3818135 58.5994012,80 50,80 C33.4314575,80 20,66.5685425 20,50 C20,33.4314575 33.4314575,20 50,20 C66.5685425,20 80,33.4314575 80,50 C80,52.6080651 79.6671938,55.1383991 79.041733,57.5508506 L88.4707197,60.0023871 C88.4707197,60.0023871 91.0647856,59.9996805 95.006922,60.0010338 C97.690754,60.0019551 99.0345245,57.6836556 99.6189293,56.2035893 Z" id="Combined-Shape"></path>
                        <rect id="Rectangle-2" transform="translate(50.000000, 50.000000) rotate(90.000000) translate(-50.000000, -50.000000) " x="40" y="10" width="20" height="80"></rect>
                    </g>
                    <g id="Group-3" transform="translate(510.000000, 30.000000)">
                        <path d="M69,-9.17668719e-16 C72.024592,1.84418453e-14 77.4739551,-1.30433858e-14 81,-2.84217094e-14 C85,-4.70786604e-14 85,4 85,4 L85,57 L65,57 L65,4 C65,4 65,-2.64701455e-14 69,-9.17668719e-16 Z" id="Rectangle-3"></path>
                        <path d="M4,8.34774957e-14 C6.9453007,9.29100546e-14 12,7.60765634e-14 16,6.39488462e-14 C20,5.51481374e-14 20,4 20,4 L20,57 L0,57 L0,4 C0,4 0,7.07012573e-14 4,8.34774957e-14 Z" id="Rectangle-3"></path>
                        <path d="M20,21.4377675 C7.98923398,28.9473914 0,42.2907029 0,57.5 C0,80.9721019 19.0278981,100 42.5,100 C65.9721019,100 85,80.9721019 85,57.5 C85,42.2907029 77.010766,28.9473914 65,21.4377675 C65,32.5543601 65,54.3706711 65,56.5 C65,68.9264069 54.9264069,79 42.5,79 C30.0735931,79 20,68.9264069 20,56.5 C20,47.7460255 20,30.7305254 20,21.4377675 Z" id="Combined-Shape"></path>
                    </g>
                    <g id="Group-3" transform="translate(634.000000, 80.000000) scale(1, -1) translate(-634.000000, -80.000000) translate(603.000000, 30.000000)">
                        <path d="M4,8.34774957e-14 C6.9453007,9.29100546e-14 12,7.60765634e-14 16,6.39488462e-14 C20,5.51481374e-14 20,4 20,4 L20,56 L0,56 L0,4 C0,4 0,7.07012573e-14 4,8.34774957e-14 Z" id="Rectangle-3"></path>
                        <path d="M20,21.4377675 C7.98923398,28.9473914 0,42.2907029 0,57.5 C0,80.9721019 19.0278981,100 42.5,100 C48.2353817,100 53.6753812,98.7298541 58.6973389,96.8045039 C60.2038679,96.2269212 63.1934774,95.9060889 59.0328535,84.4675951 C57.0660065,79.7054318 54.6257795,75.9958004 51.9013966,76.9477058 C49.0017178,77.9608599 45.8561213,79 42.5,79 C30.0735931,79 20,68.9264069 20,56.5 C20,47.7460255 20,30.7305254 20,21.4377675 Z" id="Combined-Shape"></path>
                    </g>
                </g>
                <g id="Group-2" transform="translate(260.000000, 0.000000)">
                    <polygon id="Path-4" fill="#6CC3D0" points="134.536623 117.54258 126.293234 133.999895 8.46403179 75.3335762 16.7274553 58.8727816"></polygon>
                    <polygon id="Path-3" fill="#6CC3D0" points="126.273349 8.46394942 134.524867 24.8832848 16.72921 83.5509384 8.4612861 67.1039078"></polygon>
                    <ellipse id="Oval-4" fill="#8EEDFB" cx="122.145833" cy="20.770625" rx="20.8541667" ry="20.770625"></ellipse>
                    <ellipse id="Oval-4" fill="#6CC3D0" cx="20.8541667" cy="71.2135714" rx="20.8541667" ry="20.770625"></ellipse>
                    <g id="Group" transform="translate(100.695833, 100.885893)" fill="#8EEDFB">
                        <path d="M20.8541667,41.54125 C32.3716049,41.54125 41.7083333,32.2419244 41.7083333,20.770625 C41.7083333,9.29932557 32.3716049,0 20.8541667,0 C9.33672845,0 0,9.29932557 0,20.770625 C0,32.2419244 9.33672845,41.54125 20.8541667,41.54125 Z" id="Oval-4"></path>
                        <path d="M41.7083333,20.770625 L20.8541667,20.770625 L20.8541667,65.2791071 L26.8125,65.2791071 C26.8125,65.2791071 34.7072917,54.1519866 38.43125,43.0248661 C42.1552083,31.8977455 41.7083333,20.770625 41.7083333,20.770625 Z" id="Path-2"></path>
                    </g>
                </g>
            </g>
        </g>
    </g>
</svg>